<mxfile host="app.diagrams.net" modified="2021-01-06T15:46:29.417Z" agent="5.0 (Windows NT 10.0; Win64; x64) AppleWebKit/537.36 (KHTML, like Gecko) Chrome/87.0.4280.88 Safari/537.36" etag="DvtQXeFzk7HOHmN7NxGa" version="14.1.1" type="github" pages="2">
  <diagram id="nulgUZcRM6IO7Wxl4WT8" name="Object Resources">
    <mxGraphModel dx="1422" dy="762" grid="1" gridSize="10" guides="1" tooltips="1" connect="1" arrows="1" fold="1" page="1" pageScale="1" pageWidth="850" pageHeight="1100" math="0" shadow="0">
      <root>
        <mxCell id="xkv93dfL5ZNA0a60ZzHi-0" />
        <mxCell id="xkv93dfL5ZNA0a60ZzHi-1" parent="xkv93dfL5ZNA0a60ZzHi-0" />
        <mxCell id="xkv93dfL5ZNA0a60ZzHi-7" value="Modal title" style="html=1;shadow=0;dashed=0;shape=mxgraph.bootstrap.rrect;rSize=5;html=1;strokeColor=#C8C8C8;fillColor=#ffffff;whiteSpace=wrap;verticalAlign=top;align=left;fontSize=18;spacing=15;spacingTop=-5;" parent="xkv93dfL5ZNA0a60ZzHi-1" vertex="1">
          <mxGeometry x="410" y="280" width="400" height="200" as="geometry" />
        </mxCell>
        <mxCell id="xkv93dfL5ZNA0a60ZzHi-8" value="" style="shape=line;strokeColor=#dddddd;resizeWidth=1;" parent="xkv93dfL5ZNA0a60ZzHi-7" vertex="1">
          <mxGeometry width="400" height="10" relative="1" as="geometry">
            <mxPoint y="50" as="offset" />
          </mxGeometry>
        </mxCell>
        <mxCell id="xkv93dfL5ZNA0a60ZzHi-9" value="" style="html=1;shadow=0;dashed=0;shape=mxgraph.bootstrap.x;strokeColor=#868686;strokeWidth=2;" parent="xkv93dfL5ZNA0a60ZzHi-7" vertex="1">
          <mxGeometry x="1" width="8" height="8" relative="1" as="geometry">
            <mxPoint x="-24" y="20" as="offset" />
          </mxGeometry>
        </mxCell>
        <mxCell id="xkv93dfL5ZNA0a60ZzHi-10" value="Modal body text goes here." style="strokeColor=none;fillColor=none;resizeWidth=1;align=left;verticalAlign=top;spacing=10;fontSize=13;" parent="xkv93dfL5ZNA0a60ZzHi-7" vertex="1">
          <mxGeometry width="400" height="40" relative="1" as="geometry">
            <mxPoint y="60" as="offset" />
          </mxGeometry>
        </mxCell>
        <mxCell id="xkv93dfL5ZNA0a60ZzHi-11" value="" style="shape=line;strokeColor=#dddddd;resizeWidth=1;" parent="xkv93dfL5ZNA0a60ZzHi-7" vertex="1">
          <mxGeometry width="400" height="10" relative="1" as="geometry">
            <mxPoint y="120" as="offset" />
          </mxGeometry>
        </mxCell>
        <mxCell id="xkv93dfL5ZNA0a60ZzHi-12" value="Save changes" style="html=1;shadow=0;dashed=0;shape=mxgraph.bootstrap.rrect;rSize=5;fillColor=#0085FC;strokeColor=none;fontColor=#FFFFFF;fontSize=14;" parent="xkv93dfL5ZNA0a60ZzHi-7" vertex="1">
          <mxGeometry x="1" y="1" width="110" height="40" relative="1" as="geometry">
            <mxPoint x="-130" y="-60" as="offset" />
          </mxGeometry>
        </mxCell>
        <mxCell id="xkv93dfL5ZNA0a60ZzHi-13" value="Close" style="html=1;shadow=0;dashed=0;shape=mxgraph.bootstrap.rrect;rSize=5;fillColor=#6C757D;strokeColor=none;fontColor=#FFFFFF;fontSize=14;" parent="xkv93dfL5ZNA0a60ZzHi-7" vertex="1">
          <mxGeometry x="1" y="1" width="70" height="40" relative="1" as="geometry">
            <mxPoint x="-220" y="-60" as="offset" />
          </mxGeometry>
        </mxCell>
        <mxCell id="eUFhsMvUKg0KT--hQEIe-0" value="" style="rounded=0;whiteSpace=wrap;html=1;align=left;labelBackgroundColor=#ffffff;shadow=0;strokeColor=#CCCCCC;" parent="xkv93dfL5ZNA0a60ZzHi-1" vertex="1">
          <mxGeometry x="65.5" y="258" width="243.5" height="138" as="geometry" />
        </mxCell>
        <mxCell id="eUFhsMvUKg0KT--hQEIe-1" value="Go To IMA" style="rounded=0;whiteSpace=wrap;html=1;fontColor=#FFFFFF;fillColor=#3333FF;strokeColor=#3333FF;" parent="xkv93dfL5ZNA0a60ZzHi-1" vertex="1">
          <mxGeometry x="191" y="356" width="104" height="30" as="geometry" />
        </mxCell>
        <mxCell id="eUFhsMvUKg0KT--hQEIe-2" value="" style="rounded=0;whiteSpace=wrap;html=1;shadow=0;sketch=0;strokeColor=#CCCCCC;fillColor=#808080;fontSize=10;fontColor=#808080;" parent="xkv93dfL5ZNA0a60ZzHi-1" vertex="1">
          <mxGeometry x="65" y="396" width="244" height="154" as="geometry" />
        </mxCell>
        <mxCell id="eUFhsMvUKg0KT--hQEIe-3" value="&lt;div style=&quot;text-align: left ; font-size: 16px&quot;&gt;&lt;font style=&quot;font-size: 16px&quot;&gt;IMA Process Assignment(s)&lt;/font&gt;&lt;/div&gt;&lt;br style=&quot;font-size: 16px&quot;&gt;&lt;span style=&quot;font-weight: normal&quot;&gt;There are 2 new Systems awaiting IMA Process Review.&lt;/span&gt;" style="text;html=1;strokeColor=none;fillColor=none;align=center;verticalAlign=middle;whiteSpace=wrap;rounded=0;shadow=0;sketch=0;fontSize=10;fontColor=#808080;fontStyle=1" parent="xkv93dfL5ZNA0a60ZzHi-1" vertex="1">
          <mxGeometry x="71" y="258" width="186" height="94" as="geometry" />
        </mxCell>
        <mxCell id="eUFhsMvUKg0KT--hQEIe-4" value="Assigned item information displayed here" style="text;html=1;strokeColor=none;fillColor=none;align=center;verticalAlign=middle;whiteSpace=wrap;rounded=0;shadow=0;sketch=0;fontSize=10;" parent="xkv93dfL5ZNA0a60ZzHi-1" vertex="1">
          <mxGeometry x="123" y="449" width="128" height="56" as="geometry" />
        </mxCell>
        <mxCell id="eUFhsMvUKg0KT--hQEIe-7" value="" style="html=1;shadow=0;dashed=0;shape=mxgraph.bootstrap.rrect;rSize=5;strokeColor=#DFDFDF;html=1;whiteSpace=wrap;fillColor=#FFFFFF;fontColor=#495057;" parent="xkv93dfL5ZNA0a60ZzHi-1" vertex="1">
          <mxGeometry x="60" y="590" width="300" height="300" as="geometry" />
        </mxCell>
        <mxCell id="eUFhsMvUKg0KT--hQEIe-8" value="&lt;font style=&quot;font-size: 16px&quot;&gt;Dataset Title #1&lt;/font&gt;&lt;br&gt;Guide: 123456/1258d25s8f22f&lt;br&gt;other data goes here" style="html=1;shadow=0;dashed=0;shape=mxgraph.bootstrap.topButton;rSize=5;perimeter=none;whiteSpace=wrap;resizeWidth=1;align=left;spacing=10;verticalAlign=top;fillColor=#0085FC;strokeColor=#0085FC;fontColor=#ffffff;" parent="eUFhsMvUKg0KT--hQEIe-7" vertex="1">
          <mxGeometry width="300" height="100" relative="1" as="geometry" />
        </mxCell>
        <mxCell id="eUFhsMvUKg0KT--hQEIe-10" value="&lt;font style=&quot;font-size: 16px&quot;&gt;Dataset Title #2&lt;/font&gt;&lt;br&gt;Guide: 185576/58d6s8dd222dgf8&lt;br&gt;Other data goes here&lt;br&gt;&lt;br&gt;&lt;br&gt;" style="strokeColor=inherit;fillColor=inherit;gradientColor=inherit;fontColor=inherit;html=1;shadow=0;dashed=0;perimeter=none;whiteSpace=wrap;resizeWidth=1;align=left;spacing=10;" parent="eUFhsMvUKg0KT--hQEIe-7" vertex="1">
          <mxGeometry width="300" height="100" relative="1" as="geometry">
            <mxPoint y="100" as="offset" />
          </mxGeometry>
        </mxCell>
        <mxCell id="eUFhsMvUKg0KT--hQEIe-12" value="&lt;font style=&quot;font-size: 16px&quot;&gt;Dataset Title #3&lt;/font&gt;&lt;br&gt;Guide: 123456/88d55s6c8fs6&lt;br&gt;other data goes here&lt;br&gt;&lt;br&gt;&lt;br&gt;" style="strokeColor=inherit;fillColor=inherit;gradientColor=inherit;fontColor=inherit;html=1;shadow=0;dashed=0;shape=mxgraph.bootstrap.bottomButton;rSize=5;perimeter=none;whiteSpace=wrap;resizeWidth=1;resizeHeight=0;align=left;spacing=10;" parent="eUFhsMvUKg0KT--hQEIe-7" vertex="1">
          <mxGeometry y="1" width="300" height="100" relative="1" as="geometry">
            <mxPoint y="-100" as="offset" />
          </mxGeometry>
        </mxCell>
        <mxCell id="GMRbsEK7jlrv7o2Da9Vz-0" value="" style="rounded=0;whiteSpace=wrap;html=1;fillColor=#3333FF;" parent="xkv93dfL5ZNA0a60ZzHi-1" vertex="1">
          <mxGeometry x="22" y="19" width="818" height="61" as="geometry" />
        </mxCell>
        <mxCell id="GMRbsEK7jlrv7o2Da9Vz-1" value="&lt;font style=&quot;font-size: 14px&quot;&gt;FEEDBACK&lt;/font&gt;" style="rounded=1;whiteSpace=wrap;html=1;fillColor=#FF8000;strokeColor=#FF8000;fontColor=#FFFFFF;" parent="xkv93dfL5ZNA0a60ZzHi-1" vertex="1">
          <mxGeometry x="714" y="29.5" width="120" height="40" as="geometry" />
        </mxCell>
        <mxCell id="GMRbsEK7jlrv7o2Da9Vz-2" value="" style="shape=image;html=1;verticalAlign=top;verticalLabelPosition=bottom;labelBackgroundColor=#ffffff;imageAspect=0;aspect=fixed;image=https://cdn3.iconfinder.com/data/icons/social-media-2125/78/bell-128.png;strokeColor=#FF8000;fillColor=#FF8000;fontColor=#FFFFFF;" parent="xkv93dfL5ZNA0a60ZzHi-1" vertex="1">
          <mxGeometry x="652" y="29.5" width="37" height="37" as="geometry" />
        </mxCell>
        <mxCell id="GMRbsEK7jlrv7o2Da9Vz-3" value="" style="whiteSpace=wrap;html=1;shape=mxgraph.basic.octagon2;align=center;verticalAlign=middle;dx=12;shadow=0;sketch=0;fontSize=20;fontColor=#808080;fillColor=#FF8000;strokeColor=#FF8000;" parent="xkv93dfL5ZNA0a60ZzHi-1" vertex="1">
          <mxGeometry x="32" y="25.5" width="56" height="42" as="geometry" />
        </mxCell>
        <mxCell id="GMRbsEK7jlrv7o2Da9Vz-4" value="Eva" style="text;html=1;strokeColor=none;fillColor=none;align=center;verticalAlign=middle;whiteSpace=wrap;rounded=0;shadow=0;sketch=0;fontSize=20;fontColor=#FFFFFF;fontStyle=1" parent="xkv93dfL5ZNA0a60ZzHi-1" vertex="1">
          <mxGeometry x="98" y="39" width="40" height="20" as="geometry" />
        </mxCell>
        <mxCell id="GMRbsEK7jlrv7o2Da9Vz-5" value="" style="html=1;verticalLabelPosition=bottom;align=center;labelBackgroundColor=#ffffff;verticalAlign=top;strokeWidth=2;shadow=0;dashed=0;shape=mxgraph.ios7.icons.user;sketch=0;fontSize=20;fontColor=#FFFFFF;fillColor=#FFFFFF;" parent="xkv93dfL5ZNA0a60ZzHi-1" vertex="1">
          <mxGeometry x="500" y="34.5" width="30" height="30" as="geometry" />
        </mxCell>
        <mxCell id="GMRbsEK7jlrv7o2Da9Vz-6" value="John Doe" style="text;html=1;strokeColor=none;fillColor=none;align=center;verticalAlign=middle;whiteSpace=wrap;rounded=0;shadow=0;sketch=0;fontSize=19;fontColor=#FFFFFF;" parent="xkv93dfL5ZNA0a60ZzHi-1" vertex="1">
          <mxGeometry x="543.5" y="39.5" width="94" height="20" as="geometry" />
        </mxCell>
        <mxCell id="GMRbsEK7jlrv7o2Da9Vz-13" value="" style="html=1;shadow=0;dashed=0;shape=mxgraph.bootstrap.rrect;rSize=5;strokeColor=#DEE2E6;html=1;whiteSpace=wrap;fillColor=#ffffff;fontColor=#0085FC;fontSize=14;" parent="xkv93dfL5ZNA0a60ZzHi-1" vertex="1">
          <mxGeometry x="590" y="640" width="220" height="30" as="geometry" />
        </mxCell>
        <mxCell id="GMRbsEK7jlrv7o2Da9Vz-14" value="Previous" style="strokeColor=inherit;fillColor=inherit;gradientColor=inherit;html=1;shadow=0;dashed=0;shape=mxgraph.bootstrap.leftButton;rSize=5;perimeter=none;whiteSpace=wrap;resizeHeight=1;fontColor=#6C767D;fontSize=14;" parent="GMRbsEK7jlrv7o2Da9Vz-13" vertex="1">
          <mxGeometry width="70" height="30" relative="1" as="geometry" />
        </mxCell>
        <mxCell id="GMRbsEK7jlrv7o2Da9Vz-15" value="1" style="strokeColor=inherit;fillColor=inherit;gradientColor=inherit;fontColor=inherit;html=1;shadow=0;dashed=0;perimeter=none;whiteSpace=wrap;resizeHeight=1;fontSize=14;" parent="GMRbsEK7jlrv7o2Da9Vz-13" vertex="1">
          <mxGeometry width="30" height="30" relative="1" as="geometry">
            <mxPoint x="70" as="offset" />
          </mxGeometry>
        </mxCell>
        <mxCell id="GMRbsEK7jlrv7o2Da9Vz-16" value="2" style="html=1;shadow=0;dashed=0;perimeter=none;whiteSpace=wrap;resizeHeight=1;fillColor=#0085FC;strokeColor=none;fontColor=#ffffff;fontSize=14;" parent="GMRbsEK7jlrv7o2Da9Vz-13" vertex="1">
          <mxGeometry width="30" height="30" relative="1" as="geometry">
            <mxPoint x="100" as="offset" />
          </mxGeometry>
        </mxCell>
        <mxCell id="GMRbsEK7jlrv7o2Da9Vz-17" value="3" style="strokeColor=inherit;fillColor=inherit;gradientColor=inherit;fontColor=inherit;html=1;shadow=0;dashed=0;perimeter=none;whiteSpace=wrap;resizeHeight=1;fontSize=14;" parent="GMRbsEK7jlrv7o2Da9Vz-13" vertex="1">
          <mxGeometry width="30" height="30" relative="1" as="geometry">
            <mxPoint x="130" as="offset" />
          </mxGeometry>
        </mxCell>
        <mxCell id="GMRbsEK7jlrv7o2Da9Vz-18" value="Next" style="strokeColor=inherit;fillColor=inherit;gradientColor=inherit;fontColor=inherit;html=1;shadow=0;dashed=0;shape=mxgraph.bootstrap.rightButton;rSize=5;perimeter=none;whiteSpace=wrap;resizeHeight=1;fontSize=14;" parent="GMRbsEK7jlrv7o2Da9Vz-13" vertex="1">
          <mxGeometry x="1" width="60" height="30" relative="1" as="geometry">
            <mxPoint x="-60" as="offset" />
          </mxGeometry>
        </mxCell>
        <mxCell id="GMRbsEK7jlrv7o2Da9Vz-19" value="" style="html=1;shadow=0;dashed=0;shape=mxgraph.bootstrap.rrect;rSize=5;fillColor=#f6f6f6;whiteSpace=wrap;" parent="xkv93dfL5ZNA0a60ZzHi-1" vertex="1">
          <mxGeometry x="390" y="780" width="430" height="20" as="geometry" />
        </mxCell>
        <mxCell id="GMRbsEK7jlrv7o2Da9Vz-20" value="" style="html=1;shadow=0;dashed=0;shape=mxgraph.bootstrap.leftButtonStriped;fillColor=#55BFE0;fontColor=#FFFFFF;whiteSpace=wrap;" parent="GMRbsEK7jlrv7o2Da9Vz-19" vertex="1">
          <mxGeometry width="268.75" height="20" as="geometry" />
        </mxCell>
        <mxCell id="AXpmR5Ptf7vZE80HdJZA-2" value="1" style="shape=ellipse;fontSize=12;strokeColor=none;fillColor=#4285F4;fontColor=#ffffff;align=center;verticalAlign=middle;" parent="xkv93dfL5ZNA0a60ZzHi-1" vertex="1">
          <mxGeometry x="70" y="930" width="24" height="24" as="geometry" />
        </mxCell>
        <mxCell id="AXpmR5Ptf7vZE80HdJZA-3" value="Ad unit details" style="shape=rect;fontColor=#4d4d4dlfontSize=13;strokeColor=none;fillColor=none;" parent="xkv93dfL5ZNA0a60ZzHi-1" vertex="1">
          <mxGeometry x="32" y="960" width="100" height="20" as="geometry" />
        </mxCell>
        <mxCell id="AXpmR5Ptf7vZE80HdJZA-4" value="" style="shape=line;strokeColor=#b3b3b3;" parent="xkv93dfL5ZNA0a60ZzHi-1" vertex="1">
          <mxGeometry x="102" y="937" width="110" height="10" as="geometry" />
        </mxCell>
        <mxCell id="AXpmR5Ptf7vZE80HdJZA-5" value="2" style="shape=ellipse;fontSize=12;strokeColor=none;fillColor=#9e9e9e;fontColor=#ffffff;align=center;verticalAlign=middle;" parent="xkv93dfL5ZNA0a60ZzHi-1" vertex="1">
          <mxGeometry x="222" y="930" width="24" height="24" as="geometry" />
        </mxCell>
        <mxCell id="AXpmR5Ptf7vZE80HdJZA-6" value="Ad sizes" style="shape=rect;fontColor=#4d4d4dlfontSize=13;strokeColor=none;fillColor=none;" parent="xkv93dfL5ZNA0a60ZzHi-1" vertex="1">
          <mxGeometry x="184" y="960" width="100" height="20" as="geometry" />
        </mxCell>
        <mxCell id="AXpmR5Ptf7vZE80HdJZA-7" value="" style="shape=line;strokeColor=#b3b3b3;" parent="xkv93dfL5ZNA0a60ZzHi-1" vertex="1">
          <mxGeometry x="254" y="937" width="110" height="10" as="geometry" />
        </mxCell>
        <mxCell id="AXpmR5Ptf7vZE80HdJZA-8" value="3" style="shape=ellipse;fontSize=12;strokeColor=none;fillColor=#9e9e9e;fontColor=#ffffff;" parent="xkv93dfL5ZNA0a60ZzHi-1" vertex="1">
          <mxGeometry x="374" y="930" width="24" height="24" as="geometry" />
        </mxCell>
        <mxCell id="AXpmR5Ptf7vZE80HdJZA-9" value="Create an ad" style="shape=rect;fontColor=#4d4d4dlfontSize=13;strokeColor=none;fillColor=none;align=center;verticalAlign=middle;" parent="xkv93dfL5ZNA0a60ZzHi-1" vertex="1">
          <mxGeometry x="336" y="960" width="100" height="20" as="geometry" />
        </mxCell>
        <mxCell id="AXpmR5Ptf7vZE80HdJZA-10" value="" style="shape=rect;fillColor=#ffffff;strokeColor=#eeeeee;shadow=1;" parent="xkv93dfL5ZNA0a60ZzHi-1" vertex="1">
          <mxGeometry x="560" y="880" width="280" height="328" as="geometry" />
        </mxCell>
        <mxCell id="AXpmR5Ptf7vZE80HdJZA-11" value="Title goes here" style="text;fontSize=19;fontColor=#000000;align=left;spacing=16;verticalAlign=middle;fontStyle=1;resizeWidth=1;" parent="AXpmR5Ptf7vZE80HdJZA-10" vertex="1">
          <mxGeometry width="280" height="68" relative="1" as="geometry" />
        </mxCell>
        <mxCell id="AXpmR5Ptf7vZE80HdJZA-12" value="Single line text goes here" style="text;fontSize=15;fontColor=#000000;align=left;spacing=16;fillColor=#e0e0e0;verticalAlign=middle;resizeWidth=1;" parent="AXpmR5Ptf7vZE80HdJZA-10" vertex="1">
          <mxGeometry width="280" height="50" relative="1" as="geometry">
            <mxPoint y="68" as="offset" />
          </mxGeometry>
        </mxCell>
        <mxCell id="AXpmR5Ptf7vZE80HdJZA-13" value="Two line wrapped text goes here making it wrap to next line" style="text;fontSize=15;fontColor=#000000;align=left;spacing=16;verticalAlign=middle;whiteSpace=wrap;resizeWidth=1;" parent="AXpmR5Ptf7vZE80HdJZA-10" vertex="1">
          <mxGeometry width="280" height="70" relative="1" as="geometry">
            <mxPoint y="118" as="offset" />
          </mxGeometry>
        </mxCell>
        <mxCell id="AXpmR5Ptf7vZE80HdJZA-14" value="Single line text goes here" style="text;fontSize=15;fontColor=#000000;align=left;spacing=16;verticalAlign=middle;resizeWidth=1;" parent="AXpmR5Ptf7vZE80HdJZA-10" vertex="1">
          <mxGeometry width="280" height="50" relative="1" as="geometry">
            <mxPoint y="188" as="offset" />
          </mxGeometry>
        </mxCell>
        <mxCell id="AXpmR5Ptf7vZE80HdJZA-15" value="Three line wrapped text goes here making it wrap to next line and continues longer to be here" style="text;fontSize=15;fontColor=#000000;align=left;spacing=16;verticalAlign=middle;whiteSpace=wrap;resizeWidth=1;" parent="AXpmR5Ptf7vZE80HdJZA-10" vertex="1">
          <mxGeometry width="280" height="90" relative="1" as="geometry">
            <mxPoint y="238" as="offset" />
          </mxGeometry>
        </mxCell>
        <mxCell id="AXpmR5Ptf7vZE80HdJZA-16" value="Chip text here" style="shape=rect;arcSize=50;strokeColor=none;fillColor=#eeeeee;rounded=1;spacingLeft=24;fontSize=13;align=left;" parent="xkv93dfL5ZNA0a60ZzHi-1" vertex="1">
          <mxGeometry x="42" y="1020" width="148" height="32" as="geometry" />
        </mxCell>
        <mxCell id="AXpmR5Ptf7vZE80HdJZA-18" value="" style="shape=ellipse;strokeColor=none;fillColor=#A5A5A5;aspect=fixed;" parent="AXpmR5Ptf7vZE80HdJZA-16" vertex="1">
          <mxGeometry x="1" y="0.5" width="16" height="16" relative="1" as="geometry">
            <mxPoint x="-24" y="-8" as="offset" />
          </mxGeometry>
        </mxCell>
        <mxCell id="AXpmR5Ptf7vZE80HdJZA-19" value="" style="dashed=0;shape=mxgraph.gmdl.x;strokeColor=#ffffff;strokeWidth=2;" parent="AXpmR5Ptf7vZE80HdJZA-18" vertex="1">
          <mxGeometry x="5" y="5" width="6" height="6" as="geometry" />
        </mxCell>
        <mxCell id="5jCBTZgDd5pSJJfWpDrM-0" value="" style="group" parent="xkv93dfL5ZNA0a60ZzHi-1" connectable="0" vertex="1">
          <mxGeometry x="440" y="223" width="346" height="35" as="geometry" />
        </mxCell>
        <mxCell id="AXpmR5Ptf7vZE80HdJZA-0" value="Hint text" style="text;fontColor=#808080;fontSize=16;verticalAlign=middle;strokeColor=none;fillColor=none;" parent="5jCBTZgDd5pSJJfWpDrM-0" vertex="1">
          <mxGeometry width="346" height="30" as="geometry" />
        </mxCell>
        <mxCell id="AXpmR5Ptf7vZE80HdJZA-1" value="" style="dashed=0;shape=line;strokeWidth=1;noLabel=1;strokeColor=#cccccc;opacity=50;" parent="5jCBTZgDd5pSJJfWpDrM-0" vertex="1">
          <mxGeometry y="25" width="346" height="10" as="geometry" />
        </mxCell>
        <mxCell id="XB1SntbMcaMM9CkIJR_m-0" value="" style="html=1;shadow=0;dashed=0;shape=mxgraph.bootstrap.rrect;rSize=5;strokeColor=#CED4DA;html=1;whiteSpace=wrap;fillColor=#FFFFFF;fontColor=#7D868C;align=left;spacing=15;spacingLeft=40;fontSize=14;" parent="xkv93dfL5ZNA0a60ZzHi-1" vertex="1">
          <mxGeometry x="530" y="520" width="230.00000000000006" height="30" as="geometry" />
        </mxCell>
        <mxCell id="hCrV3XMsrdQ1lhvqrHGt-57" value="" style="group" parent="xkv93dfL5ZNA0a60ZzHi-1" vertex="1" connectable="0">
          <mxGeometry x="30" y="1130" width="236" height="638" as="geometry" />
        </mxCell>
        <mxCell id="hCrV3XMsrdQ1lhvqrHGt-28" value="1" style="shape=ellipse;strokeColor=none;fillColor=#4285F4;fontColor=#ffffff;" parent="hCrV3XMsrdQ1lhvqrHGt-57" vertex="1">
          <mxGeometry width="24" height="24" as="geometry" />
        </mxCell>
        <mxCell id="hCrV3XMsrdQ1lhvqrHGt-29" value="Dataset Details" style="shape=rect;strokeColor=none;fillColor=none;align=left;fontStyle=1;" parent="hCrV3XMsrdQ1lhvqrHGt-57" vertex="1">
          <mxGeometry x="36" width="200" height="24" as="geometry" />
        </mxCell>
        <mxCell id="hCrV3XMsrdQ1lhvqrHGt-30" value="" style="shape=line;direction=north;strokeColor=#b3b3b3;" parent="hCrV3XMsrdQ1lhvqrHGt-57" vertex="1">
          <mxGeometry x="7" y="30" width="10" height="296" as="geometry" />
        </mxCell>
        <mxCell id="hCrV3XMsrdQ1lhvqrHGt-31" value="Next" style="shape=rect;strokeColor=none;fillColor=#4285f4;fontColor=#ffffff;rounded=1;" parent="hCrV3XMsrdQ1lhvqrHGt-57" vertex="1">
          <mxGeometry x="36" y="276" width="102" height="36" as="geometry" />
        </mxCell>
        <mxCell id="hCrV3XMsrdQ1lhvqrHGt-32" value="2" style="shape=ellipse;strokeColor=none;fillColor=#9e9e9e;fontColor=#ffffff;" parent="hCrV3XMsrdQ1lhvqrHGt-57" vertex="1">
          <mxGeometry y="332" width="24" height="24" as="geometry" />
        </mxCell>
        <mxCell id="hCrV3XMsrdQ1lhvqrHGt-33" value="Dataset Classification Details" style="shape=rect;strokeColor=none;fillColor=none;align=left;fontColor=#aaaaaa;" parent="hCrV3XMsrdQ1lhvqrHGt-57" vertex="1">
          <mxGeometry x="36" y="332" width="200" height="24" as="geometry" />
        </mxCell>
        <mxCell id="hCrV3XMsrdQ1lhvqrHGt-34" value="3" style="shape=ellipse;strokeColor=none;fillColor=#9e9e9e;fontColor=#ffffff;" parent="hCrV3XMsrdQ1lhvqrHGt-57" vertex="1">
          <mxGeometry y="398" width="24" height="24" as="geometry" />
        </mxCell>
        <mxCell id="hCrV3XMsrdQ1lhvqrHGt-35" value="Dataset Location" style="shape=rect;strokeColor=none;fillColor=none;align=left;fontColor=#aaaaaa;" parent="hCrV3XMsrdQ1lhvqrHGt-57" vertex="1">
          <mxGeometry x="36" y="398" width="200" height="24" as="geometry" />
        </mxCell>
        <mxCell id="hCrV3XMsrdQ1lhvqrHGt-36" value="" style="shape=line;direction=north;strokeColor=#b3b3b3;" parent="hCrV3XMsrdQ1lhvqrHGt-57" vertex="1">
          <mxGeometry x="7" y="366" width="10" height="25" as="geometry" />
        </mxCell>
        <mxCell id="hCrV3XMsrdQ1lhvqrHGt-39" value="Cancel" style="html=1;shadow=0;dashed=0;shape=mxgraph.bootstrap.rrect;rSize=5;fillColor=#6C757D;strokeColor=none;fontColor=#FFFFFF;fontSize=14;" parent="hCrV3XMsrdQ1lhvqrHGt-57" vertex="1">
          <mxGeometry x="146.00402733964256" y="276" width="70" height="36" as="geometry" />
        </mxCell>
        <mxCell id="hCrV3XMsrdQ1lhvqrHGt-47" value="4" style="shape=ellipse;strokeColor=none;fillColor=#9e9e9e;fontColor=#ffffff;" parent="hCrV3XMsrdQ1lhvqrHGt-57" vertex="1">
          <mxGeometry y="474" width="24" height="24" as="geometry" />
        </mxCell>
        <mxCell id="hCrV3XMsrdQ1lhvqrHGt-48" value="" style="shape=line;direction=north;strokeColor=#b3b3b3;" parent="hCrV3XMsrdQ1lhvqrHGt-57" vertex="1">
          <mxGeometry x="7" y="436" width="10" height="25" as="geometry" />
        </mxCell>
        <mxCell id="hCrV3XMsrdQ1lhvqrHGt-49" value="5" style="shape=ellipse;strokeColor=none;fillColor=#9e9e9e;fontColor=#ffffff;" parent="hCrV3XMsrdQ1lhvqrHGt-57" vertex="1">
          <mxGeometry y="544" width="24" height="24" as="geometry" />
        </mxCell>
        <mxCell id="hCrV3XMsrdQ1lhvqrHGt-50" value="" style="shape=line;direction=north;strokeColor=#b3b3b3;" parent="hCrV3XMsrdQ1lhvqrHGt-57" vertex="1">
          <mxGeometry x="7" y="506" width="10" height="25" as="geometry" />
        </mxCell>
        <mxCell id="hCrV3XMsrdQ1lhvqrHGt-51" value="6" style="shape=ellipse;strokeColor=none;fillColor=#9e9e9e;fontColor=#ffffff;" parent="hCrV3XMsrdQ1lhvqrHGt-57" vertex="1">
          <mxGeometry y="614" width="24" height="24" as="geometry" />
        </mxCell>
        <mxCell id="hCrV3XMsrdQ1lhvqrHGt-52" value="" style="shape=line;direction=north;strokeColor=#b3b3b3;" parent="hCrV3XMsrdQ1lhvqrHGt-57" vertex="1">
          <mxGeometry x="7" y="576" width="10" height="25" as="geometry" />
        </mxCell>
        <mxCell id="hCrV3XMsrdQ1lhvqrHGt-53" value="PII" style="shape=rect;strokeColor=none;fillColor=none;align=left;fontColor=#aaaaaa;" parent="hCrV3XMsrdQ1lhvqrHGt-57" vertex="1">
          <mxGeometry x="36" y="474" width="200" height="24" as="geometry" />
        </mxCell>
        <mxCell id="hCrV3XMsrdQ1lhvqrHGt-54" value="Record Schedule" style="shape=rect;strokeColor=none;fillColor=none;align=left;fontColor=#aaaaaa;" parent="hCrV3XMsrdQ1lhvqrHGt-57" vertex="1">
          <mxGeometry x="36" y="544" width="200" height="24" as="geometry" />
        </mxCell>
        <mxCell id="hCrV3XMsrdQ1lhvqrHGt-55" value="Notes" style="shape=rect;strokeColor=none;fillColor=none;align=left;fontColor=#aaaaaa;" parent="hCrV3XMsrdQ1lhvqrHGt-57" vertex="1">
          <mxGeometry x="36" y="614" width="200" height="24" as="geometry" />
        </mxCell>
        <mxCell id="2PX1hrpuTWqkZqvQyhOm-13" value="" style="group" parent="xkv93dfL5ZNA0a60ZzHi-1" vertex="1" connectable="0">
          <mxGeometry x="370" y="1290" width="440.33" height="55" as="geometry" />
        </mxCell>
        <mxCell id="2PX1hrpuTWqkZqvQyhOm-14" value="&lt;font color=&quot;#000000&quot; style=&quot;font-size: 11px;&quot;&gt;Originating Org:&lt;/font&gt;" style="text;html=1;strokeColor=none;fillColor=none;align=left;verticalAlign=middle;whiteSpace=wrap;rounded=0;shadow=0;sketch=0;fontSize=11;fontColor=#0645AD;" parent="2PX1hrpuTWqkZqvQyhOm-13" vertex="1">
          <mxGeometry width="80.33" height="20" as="geometry" />
        </mxCell>
        <mxCell id="2PX1hrpuTWqkZqvQyhOm-15" value="Level 4" style="rounded=1;fillColor=#F1F2F4;strokeColor=none;html=1;fontColor=#596780;align=left;fontSize=12;spacingLeft=10;shadow=0;sketch=0;" parent="2PX1hrpuTWqkZqvQyhOm-13" vertex="1">
          <mxGeometry x="270" y="25" width="80" height="30" as="geometry" />
        </mxCell>
        <mxCell id="2PX1hrpuTWqkZqvQyhOm-16" value="" style="shape=triangle;direction=south;fillColor=#596780;strokeColor=none;html=1" parent="2PX1hrpuTWqkZqvQyhOm-15" vertex="1">
          <mxGeometry x="1" y="0.5" width="12" height="6" relative="1" as="geometry">
            <mxPoint x="-20" y="-3" as="offset" />
          </mxGeometry>
        </mxCell>
        <mxCell id="2PX1hrpuTWqkZqvQyhOm-17" value="&lt;font color=&quot;#000000&quot;&gt;PPP/QQQ/RRR/ZZZ/AAA&lt;/font&gt;" style="text;html=1;strokeColor=none;fillColor=none;align=left;verticalAlign=middle;whiteSpace=wrap;rounded=0;shadow=0;sketch=0;fontSize=10;fontColor=#0645AD;" parent="2PX1hrpuTWqkZqvQyhOm-13" vertex="1">
          <mxGeometry x="90" width="80.33" height="20" as="geometry" />
        </mxCell>
        <mxCell id="2PX1hrpuTWqkZqvQyhOm-18" value="Level 5" style="rounded=1;fillColor=#F1F2F4;strokeColor=none;html=1;fontColor=#596780;align=left;fontSize=12;spacingLeft=10;shadow=0;sketch=0;" parent="2PX1hrpuTWqkZqvQyhOm-13" vertex="1">
          <mxGeometry x="360.33" y="25" width="80" height="30" as="geometry" />
        </mxCell>
        <mxCell id="2PX1hrpuTWqkZqvQyhOm-19" value="" style="shape=triangle;direction=south;fillColor=#596780;strokeColor=none;html=1" parent="2PX1hrpuTWqkZqvQyhOm-18" vertex="1">
          <mxGeometry x="1" y="0.5" width="12" height="6" relative="1" as="geometry">
            <mxPoint x="-20" y="-3" as="offset" />
          </mxGeometry>
        </mxCell>
        <mxCell id="2PX1hrpuTWqkZqvQyhOm-20" value="Level 1" style="rounded=1;fillColor=#F1F2F4;strokeColor=none;html=1;fontColor=#596780;align=left;fontSize=12;spacingLeft=10;shadow=0;sketch=0;" parent="2PX1hrpuTWqkZqvQyhOm-13" vertex="1">
          <mxGeometry y="25" width="80" height="30" as="geometry" />
        </mxCell>
        <mxCell id="2PX1hrpuTWqkZqvQyhOm-21" value="" style="shape=triangle;direction=south;fillColor=#596780;strokeColor=none;html=1" parent="2PX1hrpuTWqkZqvQyhOm-20" vertex="1">
          <mxGeometry x="1" y="0.5" width="12" height="6" relative="1" as="geometry">
            <mxPoint x="-20" y="-3" as="offset" />
          </mxGeometry>
        </mxCell>
        <mxCell id="2PX1hrpuTWqkZqvQyhOm-22" value="Level 2" style="rounded=1;fillColor=#F1F2F4;strokeColor=none;html=1;fontColor=#596780;align=left;fontSize=12;spacingLeft=10;shadow=0;sketch=0;" parent="2PX1hrpuTWqkZqvQyhOm-13" vertex="1">
          <mxGeometry x="90" y="25" width="80" height="30" as="geometry" />
        </mxCell>
        <mxCell id="2PX1hrpuTWqkZqvQyhOm-23" value="" style="shape=triangle;direction=south;fillColor=#596780;strokeColor=none;html=1" parent="2PX1hrpuTWqkZqvQyhOm-22" vertex="1">
          <mxGeometry x="1" y="0.5" width="12" height="6" relative="1" as="geometry">
            <mxPoint x="-20" y="-3" as="offset" />
          </mxGeometry>
        </mxCell>
        <mxCell id="2PX1hrpuTWqkZqvQyhOm-24" value="Level 3" style="rounded=1;fillColor=#F1F2F4;strokeColor=none;html=1;fontColor=#596780;align=left;fontSize=12;spacingLeft=10;shadow=0;sketch=0;" parent="2PX1hrpuTWqkZqvQyhOm-13" vertex="1">
          <mxGeometry x="180" y="25" width="80" height="30" as="geometry" />
        </mxCell>
        <mxCell id="2PX1hrpuTWqkZqvQyhOm-25" value="" style="shape=triangle;direction=south;fillColor=#596780;strokeColor=none;html=1" parent="2PX1hrpuTWqkZqvQyhOm-24" vertex="1">
          <mxGeometry x="1" y="0.5" width="12" height="6" relative="1" as="geometry">
            <mxPoint x="-20" y="-3" as="offset" />
          </mxGeometry>
        </mxCell>
        <mxCell id="PjoGtc6Fw8YFjYWqu3ur-3" value="" style="group" parent="xkv93dfL5ZNA0a60ZzHi-1" connectable="0" vertex="1">
          <mxGeometry x="370" y="1370" width="346" height="55" as="geometry" />
        </mxCell>
        <mxCell id="PjoGtc6Fw8YFjYWqu3ur-0" value="Label text" style="text;fontColor=#1F9BFD;fontSize=12;verticalAlign=middle;strokeColor=none;fillColor=none;" parent="PjoGtc6Fw8YFjYWqu3ur-3" vertex="1">
          <mxGeometry width="346" height="30" as="geometry" />
        </mxCell>
        <mxCell id="PjoGtc6Fw8YFjYWqu3ur-1" value="Input text" style="text;fontSize=16;verticalAlign=middle;strokeColor=none;fillColor=none;" parent="PjoGtc6Fw8YFjYWqu3ur-3" vertex="1">
          <mxGeometry y="20" width="346" height="30" as="geometry" />
        </mxCell>
        <mxCell id="PjoGtc6Fw8YFjYWqu3ur-2" value="" style="dashed=0;shape=line;strokeWidth=2;noLabel=1;strokeColor=#1F9BFD;" parent="PjoGtc6Fw8YFjYWqu3ur-3" vertex="1">
          <mxGeometry y="45" width="346" height="10" as="geometry" />
        </mxCell>
        <mxCell id="LsmkeChisaqdX0jZGm3e-0" value="" style="shape=ellipse;dashed=0;strokeColor=none;shadow=1;fontSize=13;align=center;verticalAlign=top;labelPosition=center;verticalLabelPosition=bottom;html=1;aspect=fixed;rounded=1;sketch=0;fillColor=#F8F9FA;" parent="xkv93dfL5ZNA0a60ZzHi-1" vertex="1">
          <mxGeometry x="380" y="1480" width="30" height="30" as="geometry" />
        </mxCell>
        <mxCell id="LsmkeChisaqdX0jZGm3e-1" value="" style="dashed=0;html=1;shape=mxgraph.gmdl.cloud;strokeColor=none;fillColor=#737373;shadow=0;" parent="LsmkeChisaqdX0jZGm3e-0" vertex="1">
          <mxGeometry x="8.571428571428571" y="10.714285714285714" width="12.857142857142858" height="8.571428571428571" as="geometry" />
        </mxCell>
        <mxCell id="LsmkeChisaqdX0jZGm3e-2" value="" style="shape=flexArrow;endArrow=classic;html=1;width=1.627906976744186;endWidth=1.4940886059503704;endSize=0.670391061452514;fillColor=#FFFFFF;strokeColor=none;" parent="LsmkeChisaqdX0jZGm3e-0" edge="1">
          <mxGeometry width="50" height="50" relative="1" as="geometry">
            <mxPoint x="14.940000000000055" y="12" as="sourcePoint" />
            <mxPoint x="14.940000000000055" y="18" as="targetPoint" />
          </mxGeometry>
        </mxCell>
        <mxCell id="4wY3HowodGtWrObB14q6-0" value="" style="group" parent="xkv93dfL5ZNA0a60ZzHi-1" connectable="0" vertex="1">
          <mxGeometry x="145" y="140" width="555" height="60" as="geometry" />
        </mxCell>
        <mxCell id="pSqkXLJ9_N4VDg3yCQ0M-0" value="" style="html=1;shadow=0;dashed=0;fillColor=#F8F9FA;strokeColor=none;fontSize=16;fontColor=#181819;align=left;spacing=15;" parent="4wY3HowodGtWrObB14q6-0" vertex="1">
          <mxGeometry width="555" height="60" as="geometry" />
        </mxCell>
        <mxCell id="pSqkXLJ9_N4VDg3yCQ0M-1" value="Search" style="html=1;shadow=0;dashed=0;shape=mxgraph.bootstrap.rrect;rSize=5;fontSize=14;fontColor=#6C767D;strokeColor=#CED4DA;fillColor=#ffffff;align=left;spacing=10;" parent="pSqkXLJ9_N4VDg3yCQ0M-0" vertex="1">
          <mxGeometry width="470" height="40" relative="1" as="geometry">
            <mxPoint x="10" y="10" as="offset" />
          </mxGeometry>
        </mxCell>
        <mxCell id="s2X8znYwR4Jzq7JiZqey-3" value="" style="ellipse;whiteSpace=wrap;html=1;fillColor=#FFFFFF;" parent="pSqkXLJ9_N4VDg3yCQ0M-0" vertex="1">
          <mxGeometry x="425.67961165048536" y="22" width="10.776699029126211" height="10" as="geometry" />
        </mxCell>
        <mxCell id="s2X8znYwR4Jzq7JiZqey-4" value="" style="endArrow=none;html=1;" parent="pSqkXLJ9_N4VDg3yCQ0M-0" edge="1">
          <mxGeometry width="50" height="50" relative="1" as="geometry">
            <mxPoint x="436.4563106796116" y="32" as="sourcePoint" />
            <mxPoint x="436.4563106796116" y="32" as="targetPoint" />
            <Array as="points">
              <mxPoint x="447.23300970873777" y="40" />
            </Array>
          </mxGeometry>
        </mxCell>
        <mxCell id="s2X8znYwR4Jzq7JiZqey-6" value="" style="triangle;whiteSpace=wrap;html=1;rotation=90;fillColor=#000000;" parent="pSqkXLJ9_N4VDg3yCQ0M-0" vertex="1">
          <mxGeometry x="458.00970873786395" y="25" width="10.776699029126211" height="10" as="geometry" />
        </mxCell>
        <mxCell id="pSqkXLJ9_N4VDg3yCQ0M-3" value="" style="shape=ellipse;dashed=0;strokeColor=none;shadow=1;fontSize=13;align=center;verticalAlign=top;labelPosition=center;verticalLabelPosition=bottom;html=1;aspect=fixed;" parent="4wY3HowodGtWrObB14q6-0" vertex="1">
          <mxGeometry x="492.5" y="10" width="40" height="40" as="geometry" />
        </mxCell>
        <mxCell id="pSqkXLJ9_N4VDg3yCQ0M-4" value="" style="dashed=0;html=1;shape=mxgraph.gmdl.plus;strokeColor=#737373;strokeWidth=2;shadow=0;" parent="pSqkXLJ9_N4VDg3yCQ0M-3" vertex="1">
          <mxGeometry x="12" y="12" width="16" height="16" as="geometry" />
        </mxCell>
        <mxCell id="LsmkeChisaqdX0jZGm3e-3" value="" style="shape=ellipse;dashed=0;strokeColor=none;shadow=1;fontSize=13;align=center;verticalAlign=top;labelPosition=center;verticalLabelPosition=bottom;html=1;aspect=fixed;rounded=1;sketch=0;fillColor=#F8F9FA;" parent="xkv93dfL5ZNA0a60ZzHi-1" vertex="1">
          <mxGeometry x="470" y="1520" width="30" height="30" as="geometry" />
        </mxCell>
        <mxCell id="LsmkeChisaqdX0jZGm3e-4" value="" style="dashed=0;html=1;shape=mxgraph.gmdl.cloud;strokeColor=none;fillColor=#737373;shadow=0;" parent="LsmkeChisaqdX0jZGm3e-3" vertex="1">
          <mxGeometry x="8.571428571428571" y="10.714285714285714" width="12.857142857142858" height="8.571428571428571" as="geometry" />
        </mxCell>
        <mxCell id="LsmkeChisaqdX0jZGm3e-5" value="" style="shape=flexArrow;endArrow=classic;html=1;width=1.627906976744186;endWidth=1.4940886059503704;endSize=0.670391061452514;strokeColor=none;fillColor=#ffffff;" parent="LsmkeChisaqdX0jZGm3e-3" edge="1">
          <mxGeometry width="50" height="50" relative="1" as="geometry">
            <mxPoint x="14.939999999999827" y="18" as="sourcePoint" />
            <mxPoint x="14.939999999999827" y="12" as="targetPoint" />
          </mxGeometry>
        </mxCell>
        <mxCell id="h2KlU3Mq0JFBnVk52u2B-9" value="" style="group" parent="xkv93dfL5ZNA0a60ZzHi-1" connectable="0" vertex="1">
          <mxGeometry x="360" y="1560" width="280" height="328" as="geometry" />
        </mxCell>
        <mxCell id="h2KlU3Mq0JFBnVk52u2B-0" value="" style="shape=rect;fillColor=#ffffff;strokeColor=#eeeeee;shadow=1;container=0;" parent="h2KlU3Mq0JFBnVk52u2B-9" vertex="1">
          <mxGeometry width="280" height="328" as="geometry" />
        </mxCell>
        <mxCell id="h2KlU3Mq0JFBnVk52u2B-1" value="Title goes here" style="text;fontSize=19;fontColor=#000000;align=left;spacing=16;verticalAlign=middle;fontStyle=1;resizeWidth=1;" parent="h2KlU3Mq0JFBnVk52u2B-9" vertex="1">
          <mxGeometry width="280" height="50" as="geometry" />
        </mxCell>
        <mxCell id="h2KlU3Mq0JFBnVk52u2B-6" value="" style="shape=triangle;direction=north;fillColor=#596780;strokeColor=none;html=1;" parent="h2KlU3Mq0JFBnVk52u2B-9" vertex="1">
          <mxGeometry x="250" y="22" width="18" height="9" as="geometry" />
        </mxCell>
        <mxCell id="h2KlU3Mq0JFBnVk52u2B-7" value="" style="line;strokeWidth=1;fillColor=none;align=left;verticalAlign=middle;spacingTop=-1;spacingLeft=3;spacingRight=3;rotatable=0;labelPosition=right;points=[];portConstraint=eastwest;labelBackgroundColor=none;sketch=0;fontSize=16;strokeColor=#E6E6E6;" parent="h2KlU3Mq0JFBnVk52u2B-9" vertex="1">
          <mxGeometry x="1" y="42" width="279" height="8" as="geometry" />
        </mxCell>
        <mxCell id="h2KlU3Mq0JFBnVk52u2B-8" value="Expandable Panel conten" style="text;html=1;strokeColor=none;fillColor=none;align=center;verticalAlign=middle;whiteSpace=wrap;rounded=0;labelBackgroundColor=none;sketch=0;fontSize=16;" parent="h2KlU3Mq0JFBnVk52u2B-9" vertex="1">
          <mxGeometry x="8" y="60" width="215" height="20" as="geometry" />
        </mxCell>
        <mxCell id="EqVPE0Dl84wnntA0E7xP-0" value="" style="group" parent="xkv93dfL5ZNA0a60ZzHi-1" vertex="1" connectable="0">
          <mxGeometry x="425" y="1520" width="30" height="30" as="geometry" />
        </mxCell>
        <mxCell id="EqVPE0Dl84wnntA0E7xP-1" value="" style="shape=ellipse;dashed=0;strokeColor=none;shadow=1;fontSize=13;align=center;verticalAlign=top;labelPosition=center;verticalLabelPosition=bottom;html=1;aspect=fixed;rounded=1;sketch=0;fillColor=#F8F9FA;" parent="EqVPE0Dl84wnntA0E7xP-0" vertex="1">
          <mxGeometry width="30" height="30" as="geometry" />
        </mxCell>
        <mxCell id="EqVPE0Dl84wnntA0E7xP-2" value="" style="dashed=0;aspect=fixed;verticalLabelPosition=bottom;verticalAlign=top;align=center;shape=mxgraph.gmdl.reply;strokeColor=none;fillColor=#737373;shadow=0;labelBackgroundColor=#00FF00;fontSize=14;fontColor=#00FF00;direction=west;flipV=1;" parent="EqVPE0Dl84wnntA0E7xP-0" vertex="1">
          <mxGeometry x="7" y="7.800000000000011" width="16" height="14.4" as="geometry" />
        </mxCell>
        <mxCell id="RFJ4KLtVArKrq3MvSFmw-10" value="" style="group" parent="xkv93dfL5ZNA0a60ZzHi-1" connectable="0" vertex="1">
          <mxGeometry x="88" y="1940" width="232" height="120" as="geometry" />
        </mxCell>
        <mxCell id="RFJ4KLtVArKrq3MvSFmw-0" value="Line item selected" style="dashed=0;shape=rect;fillColor=#ffffff;strokeColor=none;verticalLabelPosition=middle;align=left;verticalAlign=middle;fontSize=15;spacingLeft=72;" parent="RFJ4KLtVArKrq3MvSFmw-10" vertex="1">
          <mxGeometry width="232" height="30" as="geometry" />
        </mxCell>
        <mxCell id="RFJ4KLtVArKrq3MvSFmw-1" value="" style="dashed=0;shape=mxgraph.gmdl.checkbox;strokeColor=none;fillColor=#089953;strokeWidth=2;" parent="RFJ4KLtVArKrq3MvSFmw-0" vertex="1">
          <mxGeometry y="0.5" width="18" height="18" relative="1" as="geometry">
            <mxPoint x="16" y="-9" as="offset" />
          </mxGeometry>
        </mxCell>
        <mxCell id="RFJ4KLtVArKrq3MvSFmw-3" value="Line item unselected" style="dashed=0;shape=rect;fillColor=#ffffff;strokeColor=none;verticalLabelPosition=middle;align=left;verticalAlign=middle;fontSize=15;spacingLeft=72;" parent="RFJ4KLtVArKrq3MvSFmw-10" vertex="1">
          <mxGeometry y="30" width="232" height="30" as="geometry" />
        </mxCell>
        <mxCell id="RFJ4KLtVArKrq3MvSFmw-4" value="" style="dashed=0;shape=mxgraph.gmdl.checkbox;strokeColor=#666666;fillColor=none;strokeWidth=2;" parent="RFJ4KLtVArKrq3MvSFmw-3" vertex="1">
          <mxGeometry y="0.5" width="18" height="18" relative="1" as="geometry">
            <mxPoint x="16" y="-9" as="offset" />
          </mxGeometry>
        </mxCell>
        <mxCell id="RFJ4KLtVArKrq3MvSFmw-6" value="Line item unselected" style="dashed=0;shape=rect;fillColor=#ffffff;strokeColor=none;verticalLabelPosition=middle;align=left;verticalAlign=middle;fontSize=15;spacingLeft=72;" parent="RFJ4KLtVArKrq3MvSFmw-10" vertex="1">
          <mxGeometry y="60" width="232" height="30" as="geometry" />
        </mxCell>
        <mxCell id="RFJ4KLtVArKrq3MvSFmw-7" value="" style="dashed=0;shape=mxgraph.gmdl.checkbox;strokeColor=#666666;fillColor=none;strokeWidth=2;" parent="RFJ4KLtVArKrq3MvSFmw-6" vertex="1">
          <mxGeometry y="0.5" width="18" height="18" relative="1" as="geometry">
            <mxPoint x="16" y="-9" as="offset" />
          </mxGeometry>
        </mxCell>
        <mxCell id="RFJ4KLtVArKrq3MvSFmw-8" value="Line item unselected" style="dashed=0;shape=rect;fillColor=#ffffff;strokeColor=none;verticalLabelPosition=middle;align=left;verticalAlign=middle;fontSize=15;spacingLeft=72;" parent="RFJ4KLtVArKrq3MvSFmw-10" vertex="1">
          <mxGeometry y="90" width="232" height="30" as="geometry" />
        </mxCell>
        <mxCell id="RFJ4KLtVArKrq3MvSFmw-9" value="" style="dashed=0;shape=mxgraph.gmdl.checkbox;strokeColor=#666666;fillColor=none;strokeWidth=2;" parent="RFJ4KLtVArKrq3MvSFmw-8" vertex="1">
          <mxGeometry y="0.5" width="18" height="18" relative="1" as="geometry">
            <mxPoint x="16" y="-9" as="offset" />
          </mxGeometry>
        </mxCell>
      </root>
    </mxGraphModel>
  </diagram>
  <diagram id="93Bau011qIshNVY3Yovq" name="Adv-Search">
    <mxGraphModel dx="1422" dy="762" grid="1" gridSize="10" guides="1" tooltips="1" connect="1" arrows="1" fold="1" page="1" pageScale="1" pageWidth="1100" pageHeight="850" math="0" shadow="0">
      <root>
        <mxCell id="afQhganDkCOF2s81uszc-0" />
        <mxCell id="afQhganDkCOF2s81uszc-1" parent="afQhganDkCOF2s81uszc-0" />
        <mxCell id="F1oMRLXL1GtkXlX3kdFk-0" value="" style="rounded=0;whiteSpace=wrap;html=1;fillColor=#3333FF;" parent="afQhganDkCOF2s81uszc-1" vertex="1">
          <mxGeometry x="16" y="20" width="814" height="61" as="geometry" />
        </mxCell>
        <mxCell id="F1oMRLXL1GtkXlX3kdFk-1" value="&lt;font style=&quot;font-size: 14px&quot;&gt;FEEDBACK&lt;/font&gt;" style="rounded=1;whiteSpace=wrap;html=1;fillColor=#FF8000;strokeColor=#FF8000;fontColor=#FFFFFF;" parent="afQhganDkCOF2s81uszc-1" vertex="1">
          <mxGeometry x="700" y="29" width="120" height="40" as="geometry" />
        </mxCell>
        <mxCell id="F1oMRLXL1GtkXlX3kdFk-2" value="" style="shape=image;html=1;verticalAlign=top;verticalLabelPosition=bottom;labelBackgroundColor=#ffffff;imageAspect=0;aspect=fixed;image=https://cdn3.iconfinder.com/data/icons/social-media-2125/78/bell-128.png;strokeColor=#FF8000;fillColor=#FF8000;fontColor=#FFFFFF;" parent="afQhganDkCOF2s81uszc-1" vertex="1">
          <mxGeometry x="646" y="30.5" width="37" height="37" as="geometry" />
        </mxCell>
        <mxCell id="F1oMRLXL1GtkXlX3kdFk-3" value="" style="whiteSpace=wrap;html=1;shape=mxgraph.basic.octagon2;align=center;verticalAlign=middle;dx=12;shadow=0;sketch=0;fontSize=20;fontColor=#808080;fillColor=#FF8000;strokeColor=#FF8000;" parent="afQhganDkCOF2s81uszc-1" vertex="1">
          <mxGeometry x="26" y="26.5" width="56" height="42" as="geometry" />
        </mxCell>
        <mxCell id="F1oMRLXL1GtkXlX3kdFk-4" value="Eva" style="text;html=1;strokeColor=none;fillColor=none;align=center;verticalAlign=middle;whiteSpace=wrap;rounded=0;shadow=0;sketch=0;fontSize=20;fontColor=#FFFFFF;fontStyle=1" parent="afQhganDkCOF2s81uszc-1" vertex="1">
          <mxGeometry x="92" y="40" width="40" height="20" as="geometry" />
        </mxCell>
        <mxCell id="F1oMRLXL1GtkXlX3kdFk-5" value="" style="html=1;verticalLabelPosition=bottom;align=center;labelBackgroundColor=#ffffff;verticalAlign=top;strokeWidth=2;shadow=0;dashed=0;shape=mxgraph.ios7.icons.user;sketch=0;fontSize=20;fontColor=#FFFFFF;fillColor=#FFFFFF;" parent="afQhganDkCOF2s81uszc-1" vertex="1">
          <mxGeometry x="494" y="35.5" width="30" height="30" as="geometry" />
        </mxCell>
        <mxCell id="F1oMRLXL1GtkXlX3kdFk-6" value="John Doe" style="text;html=1;strokeColor=none;fillColor=none;align=center;verticalAlign=middle;whiteSpace=wrap;rounded=0;shadow=0;sketch=0;fontSize=19;fontColor=#FFFFFF;" parent="afQhganDkCOF2s81uszc-1" vertex="1">
          <mxGeometry x="537.5" y="40.5" width="94" height="20" as="geometry" />
        </mxCell>
        <mxCell id="F1oMRLXL1GtkXlX3kdFk-7" value="" style="rounded=0;whiteSpace=wrap;html=1;strokeColor=#000000;fillColor=#F8F9FA;" parent="afQhganDkCOF2s81uszc-1" vertex="1">
          <mxGeometry x="16" y="81" width="814" height="609" as="geometry" />
        </mxCell>
        <mxCell id="F1oMRLXL1GtkXlX3kdFk-8" value="" style="endArrow=none;html=1;exitX=-0.001;exitY=0.154;exitDx=0;exitDy=0;exitPerimeter=0;" parent="afQhganDkCOF2s81uszc-1" source="F1oMRLXL1GtkXlX3kdFk-7" edge="1">
          <mxGeometry width="50" height="50" relative="1" as="geometry">
            <mxPoint x="400" y="380" as="sourcePoint" />
            <mxPoint x="830" y="177" as="targetPoint" />
          </mxGeometry>
        </mxCell>
        <mxCell id="P3khZT91ry--kH_ZmHq8-0" value="" style="html=1;shadow=0;dashed=0;fillColor=#F8F9FA;strokeColor=none;fontSize=16;fontColor=#181819;align=left;spacing=15;" parent="afQhganDkCOF2s81uszc-1" vertex="1">
          <mxGeometry x="148" y="100" width="555" height="60" as="geometry" />
        </mxCell>
        <mxCell id="P3khZT91ry--kH_ZmHq8-1" value="Search" style="html=1;shadow=0;dashed=0;shape=mxgraph.bootstrap.rrect;rSize=5;fontSize=14;fontColor=#6C767D;strokeColor=#CED4DA;fillColor=#ffffff;align=left;spacing=10;" parent="P3khZT91ry--kH_ZmHq8-0" vertex="1">
          <mxGeometry width="470" height="40" relative="1" as="geometry">
            <mxPoint x="10" y="10" as="offset" />
          </mxGeometry>
        </mxCell>
        <mxCell id="P3khZT91ry--kH_ZmHq8-2" value="" style="ellipse;whiteSpace=wrap;html=1;fillColor=#FFFFFF;" parent="P3khZT91ry--kH_ZmHq8-0" vertex="1">
          <mxGeometry x="425.67961165048536" y="22" width="10.776699029126211" height="10" as="geometry" />
        </mxCell>
        <mxCell id="P3khZT91ry--kH_ZmHq8-3" value="" style="endArrow=none;html=1;" parent="P3khZT91ry--kH_ZmHq8-0" edge="1">
          <mxGeometry width="50" height="50" relative="1" as="geometry">
            <mxPoint x="436.4563106796116" y="32" as="sourcePoint" />
            <mxPoint x="436.4563106796116" y="32" as="targetPoint" />
            <Array as="points">
              <mxPoint x="447.23300970873777" y="40" />
            </Array>
          </mxGeometry>
        </mxCell>
        <mxCell id="P3khZT91ry--kH_ZmHq8-4" value="" style="triangle;whiteSpace=wrap;html=1;rotation=90;fillColor=#000000;" parent="P3khZT91ry--kH_ZmHq8-0" vertex="1">
          <mxGeometry x="458.00970873786395" y="25" width="10.776699029126211" height="10" as="geometry" />
        </mxCell>
        <mxCell id="P3khZT91ry--kH_ZmHq8-5" value="" style="shape=ellipse;dashed=0;strokeColor=none;shadow=1;fontSize=13;align=center;verticalAlign=top;labelPosition=center;verticalLabelPosition=bottom;html=1;aspect=fixed;" parent="afQhganDkCOF2s81uszc-1" vertex="1">
          <mxGeometry x="640.5" y="110" width="40" height="40" as="geometry" />
        </mxCell>
        <mxCell id="P3khZT91ry--kH_ZmHq8-6" value="" style="dashed=0;html=1;shape=mxgraph.gmdl.plus;strokeColor=#737373;strokeWidth=2;shadow=0;" parent="P3khZT91ry--kH_ZmHq8-5" vertex="1">
          <mxGeometry x="12" y="12" width="16" height="16" as="geometry" />
        </mxCell>
        <mxCell id="DtKyDGjQeJH8miTnf8pW-0" value="" style="html=1;shadow=0;dashed=0;shape=mxgraph.bootstrap.rrect;rSize=5;strokeColor=#DFDFDF;html=1;whiteSpace=wrap;fontColor=#495057;fillColor=#F8F9FA;" parent="afQhganDkCOF2s81uszc-1" vertex="1">
          <mxGeometry x="20" y="180" width="260" height="500" as="geometry" />
        </mxCell>
        <mxCell id="DtKyDGjQeJH8miTnf8pW-1" value="&lt;font style=&quot;font-size: 16px&quot;&gt;DATASET #1&lt;/font&gt;&lt;br&gt;&lt;br&gt;Donec id elit non mi porta gravida at eget metus. Maecenas sed diam eget risus varius blandit.&lt;br&gt;&lt;font style=&quot;font-size: 11px&quot;&gt;Donec id elit mi porta.&lt;/font&gt;" style="html=1;shadow=0;dashed=0;shape=mxgraph.bootstrap.topButton;rSize=5;perimeter=none;whiteSpace=wrap;resizeWidth=1;align=left;spacing=10;verticalAlign=top;fillColor=#0085FC;strokeColor=#0085FC;fontColor=#ffffff;" parent="DtKyDGjQeJH8miTnf8pW-0" vertex="1">
          <mxGeometry width="260" height="100" relative="1" as="geometry" />
        </mxCell>
        <mxCell id="DtKyDGjQeJH8miTnf8pW-2" value="&lt;font style=&quot;font-size: 16px&quot;&gt;DATASET #2&lt;/font&gt;&lt;br&gt;&lt;br&gt;Donec id elit non mi porta gravida at eget metus. Maecenas sed diam eget risus varius blandit.&lt;br&gt;&lt;font style=&quot;font-size: 11px&quot;&gt;Donec id elit mi porta.&lt;/font&gt;" style="strokeColor=inherit;fillColor=inherit;gradientColor=inherit;fontColor=inherit;html=1;shadow=0;dashed=0;perimeter=none;whiteSpace=wrap;resizeWidth=1;align=left;spacing=10;" parent="DtKyDGjQeJH8miTnf8pW-0" vertex="1">
          <mxGeometry width="260" height="100" relative="1" as="geometry">
            <mxPoint y="100" as="offset" />
          </mxGeometry>
        </mxCell>
        <mxCell id="DtKyDGjQeJH8miTnf8pW-3" value="&lt;font style=&quot;font-size: 16px&quot;&gt;DATASET NUMERO TRES&lt;/font&gt;&lt;br&gt;&lt;br&gt;Donec id elit non mi porta gravida at eget metus. Maecenas sed diam eget risus varius blandit.&lt;br&gt;&lt;font style=&quot;font-size: 11px&quot;&gt;Donec id elit mi porta.&lt;/font&gt;" style="strokeColor=inherit;fillColor=inherit;gradientColor=inherit;fontColor=inherit;html=1;shadow=0;dashed=0;shape=mxgraph.bootstrap.bottomButton;rSize=5;perimeter=none;whiteSpace=wrap;resizeWidth=1;resizeHeight=0;align=left;spacing=10;" parent="DtKyDGjQeJH8miTnf8pW-0" vertex="1">
          <mxGeometry y="1" width="260" height="100" relative="1" as="geometry">
            <mxPoint y="-320" as="offset" />
          </mxGeometry>
        </mxCell>
        <mxCell id="DtKyDGjQeJH8miTnf8pW-4" value="" style="endArrow=none;html=1;entryX=1.003;entryY=-0.04;entryDx=0;entryDy=0;entryPerimeter=0;exitX=1.003;exitY=1;exitDx=0;exitDy=0;exitPerimeter=0;" parent="DtKyDGjQeJH8miTnf8pW-0" source="DtKyDGjQeJH8miTnf8pW-0" target="DtKyDGjQeJH8miTnf8pW-1" edge="1">
          <mxGeometry width="50" height="50" relative="1" as="geometry">
            <mxPoint x="329.33333333333337" y="147.05882352941177" as="sourcePoint" />
            <mxPoint x="372.6666666666667" y="98.0392156862745" as="targetPoint" />
          </mxGeometry>
        </mxCell>
        <mxCell id="CfSxjGGQtXn62uRnc3Td-0" value="Adv. Search&lt;br&gt;(descriptive paragraph + list of general search fields?)" style="html=1;shadow=0;dashed=0;shape=mxgraph.bootstrap.rrect;rSize=5;html=1;strokeColor=#C8C8C8;fillColor=#ffffff;whiteSpace=wrap;verticalAlign=top;align=left;fontSize=18;spacing=15;spacingTop=-5;" parent="afQhganDkCOF2s81uszc-1" vertex="1">
          <mxGeometry x="160" y="150" width="460" height="490" as="geometry" />
        </mxCell>
        <mxCell id="CfSxjGGQtXn62uRnc3Td-1" value="" style="shape=line;strokeColor=#dddddd;resizeWidth=1;" parent="CfSxjGGQtXn62uRnc3Td-0" vertex="1">
          <mxGeometry width="450.3259726603575" height="10" relative="1" as="geometry">
            <mxPoint y="50" as="offset" />
          </mxGeometry>
        </mxCell>
        <mxCell id="CfSxjGGQtXn62uRnc3Td-2" value="" style="html=1;shadow=0;dashed=0;shape=mxgraph.bootstrap.x;strokeColor=#868686;strokeWidth=2;" parent="CfSxjGGQtXn62uRnc3Td-0" vertex="1">
          <mxGeometry x="1" width="8" height="8" relative="1" as="geometry">
            <mxPoint x="-24" y="20" as="offset" />
          </mxGeometry>
        </mxCell>
        <mxCell id="CfSxjGGQtXn62uRnc3Td-3" value="OR" style="strokeColor=none;fillColor=none;resizeWidth=1;align=left;verticalAlign=top;spacing=10;fontSize=13;" parent="CfSxjGGQtXn62uRnc3Td-0" vertex="1">
          <mxGeometry width="50" height="40" relative="1" as="geometry">
            <mxPoint x="9.670000000000016" y="150" as="offset" />
          </mxGeometry>
        </mxCell>
        <mxCell id="CfSxjGGQtXn62uRnc3Td-4" value="" style="shape=line;strokeColor=#dddddd;resizeWidth=1;" parent="CfSxjGGQtXn62uRnc3Td-0" vertex="1">
          <mxGeometry width="450.3259726603575" height="10" relative="1" as="geometry">
            <mxPoint x="4.84" y="280" as="offset" />
          </mxGeometry>
        </mxCell>
        <mxCell id="CfSxjGGQtXn62uRnc3Td-5" value="Search" style="html=1;shadow=0;dashed=0;shape=mxgraph.bootstrap.rrect;rSize=5;fillColor=#0085FC;strokeColor=none;fontColor=#FFFFFF;fontSize=14;" parent="CfSxjGGQtXn62uRnc3Td-0" vertex="1">
          <mxGeometry x="1" y="1" width="91" height="40" relative="1" as="geometry">
            <mxPoint x="-111" y="-60" as="offset" />
          </mxGeometry>
        </mxCell>
        <mxCell id="CfSxjGGQtXn62uRnc3Td-6" value="Cancel" style="html=1;shadow=0;dashed=0;shape=mxgraph.bootstrap.rrect;rSize=5;fillColor=#6C757D;strokeColor=none;fontColor=#FFFFFF;fontSize=14;" parent="CfSxjGGQtXn62uRnc3Td-0" vertex="1">
          <mxGeometry x="1" y="1" width="70" height="40" relative="1" as="geometry">
            <mxPoint x="-200" y="-60" as="offset" />
          </mxGeometry>
        </mxCell>
        <mxCell id="CfSxjGGQtXn62uRnc3Td-8" value="" style="shape=line;strokeColor=#dddddd;resizeWidth=1;" parent="CfSxjGGQtXn62uRnc3Td-0" vertex="1">
          <mxGeometry x="9.67402733964248" y="407.98220611916275" width="450.3259726603575" height="18.14814814814815" as="geometry" />
        </mxCell>
        <mxCell id="CfSxjGGQtXn62uRnc3Td-9" value="Specific Section" style="strokeColor=none;fillColor=none;resizeWidth=1;align=left;verticalAlign=top;spacing=10;fontSize=13;" parent="CfSxjGGQtXn62uRnc3Td-0" vertex="1">
          <mxGeometry x="4.840000000000003" y="290" width="450.3259726603575" height="40" as="geometry" />
        </mxCell>
        <mxCell id="CfSxjGGQtXn62uRnc3Td-10" value="" style="html=1;shadow=0;dashed=0;shape=mxgraph.bootstrap.rrect;rSize=5;strokeColor=#CED4DA;html=1;whiteSpace=wrap;fillColor=#FFFFFF;fontColor=#7D868C;align=left;spacing=15;spacingLeft=40;fontSize=14;" parent="CfSxjGGQtXn62uRnc3Td-0" vertex="1">
          <mxGeometry x="60" y="150" width="360" height="40" as="geometry" />
        </mxCell>
        <mxCell id="CfSxjGGQtXn62uRnc3Td-17" value="AND" style="strokeColor=none;fillColor=none;resizeWidth=1;align=left;verticalAlign=top;spacing=10;fontSize=13;" parent="CfSxjGGQtXn62uRnc3Td-0" vertex="1">
          <mxGeometry x="9.670000000000073" y="70" width="50" height="40" as="geometry" />
        </mxCell>
        <mxCell id="CfSxjGGQtXn62uRnc3Td-18" value="" style="html=1;shadow=0;dashed=0;shape=mxgraph.bootstrap.rrect;rSize=5;strokeColor=#CED4DA;html=1;whiteSpace=wrap;fillColor=#FFFFFF;fontColor=#7D868C;align=left;spacing=15;spacingLeft=40;fontSize=14;" parent="CfSxjGGQtXn62uRnc3Td-0" vertex="1">
          <mxGeometry x="60" y="70" width="360" height="40" as="geometry" />
        </mxCell>
        <mxCell id="CfSxjGGQtXn62uRnc3Td-19" value="NOT" style="strokeColor=none;fillColor=none;resizeWidth=1;align=left;verticalAlign=top;spacing=10;fontSize=13;" parent="CfSxjGGQtXn62uRnc3Td-0" vertex="1">
          <mxGeometry x="9.670000000000073" y="225" width="50" height="40" as="geometry" />
        </mxCell>
        <mxCell id="CfSxjGGQtXn62uRnc3Td-20" value="" style="html=1;shadow=0;dashed=0;shape=mxgraph.bootstrap.rrect;rSize=5;strokeColor=#CED4DA;html=1;whiteSpace=wrap;fillColor=#FFFFFF;fontColor=#7D868C;align=left;spacing=15;spacingLeft=40;fontSize=14;" parent="CfSxjGGQtXn62uRnc3Td-0" vertex="1">
          <mxGeometry x="60" y="225" width="360" height="40" as="geometry" />
        </mxCell>
        <mxCell id="CfSxjGGQtXn62uRnc3Td-21" value="AND" style="strokeColor=none;fillColor=none;resizeWidth=1;align=left;verticalAlign=top;spacing=10;fontSize=13;" parent="CfSxjGGQtXn62uRnc3Td-0" vertex="1">
          <mxGeometry x="40.00000000000006" y="185" width="50" height="40" as="geometry" />
        </mxCell>
        <mxCell id="CfSxjGGQtXn62uRnc3Td-22" value="AND" style="fillColor=none;resizeWidth=1;align=left;verticalAlign=top;spacing=10;fontSize=13;" parent="CfSxjGGQtXn62uRnc3Td-0" vertex="1">
          <mxGeometry x="40" y="110" width="60" height="40" as="geometry" />
        </mxCell>
        <mxCell id="CfSxjGGQtXn62uRnc3Td-23" value="" style="triangle;whiteSpace=wrap;html=1;rotation=90;fillColor=#000000;" parent="CfSxjGGQtXn62uRnc3Td-0" vertex="1">
          <mxGeometry x="79.21970873786398" y="125" width="10.776699029126211" height="10" as="geometry" />
        </mxCell>
        <mxCell id="CfSxjGGQtXn62uRnc3Td-24" value="Choose a field" style="fillColor=none;resizeWidth=1;align=left;verticalAlign=top;spacing=10;fontSize=13;" parent="CfSxjGGQtXn62uRnc3Td-0" vertex="1">
          <mxGeometry x="20" y="350" width="120" height="40" as="geometry" />
        </mxCell>
        <mxCell id="CfSxjGGQtXn62uRnc3Td-26" value="" style="triangle;whiteSpace=wrap;html=1;rotation=90;fillColor=#000000;" parent="CfSxjGGQtXn62uRnc3Td-0" vertex="1">
          <mxGeometry x="119.99970873786401" y="365" width="10.776699029126211" height="10" as="geometry" />
        </mxCell>
        <mxCell id="Xf7myAMOC80gz1t5hUh6-0" value="" style="rounded=0;whiteSpace=wrap;html=1;fillColor=#3333FF;" parent="afQhganDkCOF2s81uszc-1" vertex="1">
          <mxGeometry x="40" y="880" width="974" height="61" as="geometry" />
        </mxCell>
        <mxCell id="Xf7myAMOC80gz1t5hUh6-1" value="&lt;font style=&quot;font-size: 14px&quot;&gt;FEEDBACK&lt;/font&gt;" style="rounded=1;whiteSpace=wrap;html=1;fillColor=#FF8000;strokeColor=#FF8000;fontColor=#FFFFFF;" parent="afQhganDkCOF2s81uszc-1" vertex="1">
          <mxGeometry x="884" y="890.5" width="120" height="40" as="geometry" />
        </mxCell>
        <mxCell id="Xf7myAMOC80gz1t5hUh6-2" value="" style="shape=image;html=1;verticalAlign=top;verticalLabelPosition=bottom;labelBackgroundColor=#ffffff;imageAspect=0;aspect=fixed;image=https://cdn3.iconfinder.com/data/icons/social-media-2125/78/bell-128.png;strokeColor=#FF8000;fillColor=#FF8000;fontColor=#FFFFFF;" parent="afQhganDkCOF2s81uszc-1" vertex="1">
          <mxGeometry x="834" y="891.5" width="37" height="37" as="geometry" />
        </mxCell>
        <mxCell id="Xf7myAMOC80gz1t5hUh6-3" value="" style="whiteSpace=wrap;html=1;shape=mxgraph.basic.octagon2;align=center;verticalAlign=middle;dx=12;shadow=0;sketch=0;fontSize=20;fontColor=#808080;fillColor=#FF8000;strokeColor=#FF8000;" parent="afQhganDkCOF2s81uszc-1" vertex="1">
          <mxGeometry x="50" y="886.5" width="56" height="42" as="geometry" />
        </mxCell>
        <mxCell id="Xf7myAMOC80gz1t5hUh6-4" value="Eva" style="text;html=1;strokeColor=none;fillColor=none;align=center;verticalAlign=middle;whiteSpace=wrap;rounded=0;shadow=0;sketch=0;fontSize=20;fontColor=#FFFFFF;fontStyle=1" parent="afQhganDkCOF2s81uszc-1" vertex="1">
          <mxGeometry x="116" y="900" width="40" height="20" as="geometry" />
        </mxCell>
        <mxCell id="Xf7myAMOC80gz1t5hUh6-5" value="" style="html=1;verticalLabelPosition=bottom;align=center;labelBackgroundColor=#ffffff;verticalAlign=top;strokeWidth=2;shadow=0;dashed=0;shape=mxgraph.ios7.icons.user;sketch=0;fontSize=20;fontColor=#FFFFFF;fillColor=#FFFFFF;" parent="afQhganDkCOF2s81uszc-1" vertex="1">
          <mxGeometry x="694" y="895.5" width="30" height="30" as="geometry" />
        </mxCell>
        <mxCell id="Xf7myAMOC80gz1t5hUh6-6" value="John Doe" style="text;html=1;strokeColor=none;fillColor=none;align=center;verticalAlign=middle;whiteSpace=wrap;rounded=0;shadow=0;sketch=0;fontSize=19;fontColor=#FFFFFF;" parent="afQhganDkCOF2s81uszc-1" vertex="1">
          <mxGeometry x="724" y="900.5" width="94" height="20" as="geometry" />
        </mxCell>
        <mxCell id="Xf7myAMOC80gz1t5hUh6-7" value="" style="rounded=0;whiteSpace=wrap;html=1;strokeColor=#000000;fillColor=#F8F9FA;" parent="afQhganDkCOF2s81uszc-1" vertex="1">
          <mxGeometry x="40" y="941" width="974" height="609" as="geometry" />
        </mxCell>
        <mxCell id="Xf7myAMOC80gz1t5hUh6-8" value="" style="dashed=0;shape=line;strokeWidth=1;noLabel=1;strokeColor=#eeeeee;" parent="afQhganDkCOF2s81uszc-1" vertex="1">
          <mxGeometry x="394" y="945" width="346" height="10" as="geometry" />
        </mxCell>
        <mxCell id="Xf7myAMOC80gz1t5hUh6-9" value="all these words&lt;br&gt;" style="text;html=1;strokeColor=none;fillColor=none;align=right;verticalAlign=middle;whiteSpace=wrap;rounded=0;fontSize=16;" parent="afQhganDkCOF2s81uszc-1" vertex="1">
          <mxGeometry x="74" y="1007.5" width="200.33" height="20" as="geometry" />
        </mxCell>
        <mxCell id="Xf7myAMOC80gz1t5hUh6-10" value="this exact word or phrase" style="text;html=1;strokeColor=none;fillColor=none;align=right;verticalAlign=middle;whiteSpace=wrap;rounded=0;fontSize=16;" parent="afQhganDkCOF2s81uszc-1" vertex="1">
          <mxGeometry x="84" y="1047.5" width="190.33" height="20" as="geometry" />
        </mxCell>
        <mxCell id="Xf7myAMOC80gz1t5hUh6-11" value="any of these words" style="text;html=1;strokeColor=none;fillColor=none;align=right;verticalAlign=middle;whiteSpace=wrap;rounded=0;fontSize=16;" parent="afQhganDkCOF2s81uszc-1" vertex="1">
          <mxGeometry x="74" y="1087.5" width="200.33" height="20" as="geometry" />
        </mxCell>
        <mxCell id="Xf7myAMOC80gz1t5hUh6-12" value="non of these words" style="text;html=1;strokeColor=none;fillColor=none;align=right;verticalAlign=middle;whiteSpace=wrap;rounded=0;fontSize=16;" parent="afQhganDkCOF2s81uszc-1" vertex="1">
          <mxGeometry x="74" y="1127.5" width="200.33" height="20" as="geometry" />
        </mxCell>
        <mxCell id="Xf7myAMOC80gz1t5hUh6-13" value="" style="group" parent="afQhganDkCOF2s81uszc-1" connectable="0" vertex="1">
          <mxGeometry x="324.66" y="1000" width="649.34" height="35" as="geometry" />
        </mxCell>
        <mxCell id="Xf7myAMOC80gz1t5hUh6-14" value="Input text" style="text;fontSize=16;verticalAlign=middle;strokeColor=none;fillColor=none;" parent="Xf7myAMOC80gz1t5hUh6-13" vertex="1">
          <mxGeometry width="649.34" height="29.999999999999996" as="geometry" />
        </mxCell>
        <mxCell id="Xf7myAMOC80gz1t5hUh6-15" value="" style="dashed=0;shape=line;strokeWidth=1;noLabel=1;strokeColor=#eeeeee;" parent="Xf7myAMOC80gz1t5hUh6-13" vertex="1">
          <mxGeometry y="25" width="649.34" height="10" as="geometry" />
        </mxCell>
        <mxCell id="Xf7myAMOC80gz1t5hUh6-16" value="" style="group" parent="afQhganDkCOF2s81uszc-1" connectable="0" vertex="1">
          <mxGeometry x="324" y="1040" width="650" height="35" as="geometry" />
        </mxCell>
        <mxCell id="Xf7myAMOC80gz1t5hUh6-17" value="Input text" style="text;fontSize=16;verticalAlign=middle;strokeColor=none;fillColor=none;" parent="Xf7myAMOC80gz1t5hUh6-16" vertex="1">
          <mxGeometry width="650" height="29.999999999999996" as="geometry" />
        </mxCell>
        <mxCell id="Xf7myAMOC80gz1t5hUh6-18" value="" style="dashed=0;shape=line;strokeWidth=1;noLabel=1;strokeColor=#eeeeee;" parent="Xf7myAMOC80gz1t5hUh6-16" vertex="1">
          <mxGeometry y="25" width="650" height="10" as="geometry" />
        </mxCell>
        <mxCell id="Xf7myAMOC80gz1t5hUh6-19" value="" style="group" parent="afQhganDkCOF2s81uszc-1" connectable="0" vertex="1">
          <mxGeometry x="324" y="1080" width="650" height="35" as="geometry" />
        </mxCell>
        <mxCell id="Xf7myAMOC80gz1t5hUh6-20" value="Input text" style="text;fontSize=16;verticalAlign=middle;strokeColor=none;fillColor=none;" parent="Xf7myAMOC80gz1t5hUh6-19" vertex="1">
          <mxGeometry width="650" height="29.999999999999996" as="geometry" />
        </mxCell>
        <mxCell id="Xf7myAMOC80gz1t5hUh6-21" value="" style="dashed=0;shape=line;strokeWidth=1;noLabel=1;strokeColor=#eeeeee;" parent="Xf7myAMOC80gz1t5hUh6-19" vertex="1">
          <mxGeometry y="25" width="650" height="10" as="geometry" />
        </mxCell>
        <mxCell id="Xf7myAMOC80gz1t5hUh6-22" value="" style="group" parent="afQhganDkCOF2s81uszc-1" connectable="0" vertex="1">
          <mxGeometry x="324" y="1120" width="650" height="35" as="geometry" />
        </mxCell>
        <mxCell id="Xf7myAMOC80gz1t5hUh6-23" value="Input text" style="text;fontSize=16;verticalAlign=middle;strokeColor=none;fillColor=none;" parent="Xf7myAMOC80gz1t5hUh6-22" vertex="1">
          <mxGeometry width="650" height="29.999999999999996" as="geometry" />
        </mxCell>
        <mxCell id="Xf7myAMOC80gz1t5hUh6-24" value="" style="dashed=0;shape=line;strokeWidth=1;noLabel=1;strokeColor=#eeeeee;" parent="Xf7myAMOC80gz1t5hUh6-22" vertex="1">
          <mxGeometry y="25" width="650" height="10" as="geometry" />
        </mxCell>
        <mxCell id="Xf7myAMOC80gz1t5hUh6-25" value="Advanced Search" style="text;html=1;strokeColor=none;fillColor=none;align=center;verticalAlign=middle;whiteSpace=wrap;rounded=0;fontSize=17;fontStyle=1" parent="afQhganDkCOF2s81uszc-1" vertex="1">
          <mxGeometry x="54" y="960" width="181" height="30" as="geometry" />
        </mxCell>
        <mxCell id="Xf7myAMOC80gz1t5hUh6-26" value="" style="line;strokeWidth=1;fillColor=none;align=left;verticalAlign=middle;spacingTop=-1;spacingLeft=3;spacingRight=3;rotatable=0;labelPosition=right;points=[];portConstraint=eastwest;fontSize=17;strokeColor=#E6E6E6;" parent="afQhganDkCOF2s81uszc-1" vertex="1">
          <mxGeometry x="84" y="1170" width="890" height="8" as="geometry" />
        </mxCell>
        <mxCell id="Xf7myAMOC80gz1t5hUh6-27" value="Specific Field Section" style="text;html=1;strokeColor=none;fillColor=none;align=center;verticalAlign=middle;whiteSpace=wrap;rounded=0;fontSize=17;fontStyle=1" parent="afQhganDkCOF2s81uszc-1" vertex="1">
          <mxGeometry x="74" y="1190" width="181" height="30" as="geometry" />
        </mxCell>
        <mxCell id="Xf7myAMOC80gz1t5hUh6-28" value="field name" style="text;html=1;strokeColor=none;fillColor=none;align=right;verticalAlign=middle;whiteSpace=wrap;rounded=0;fontSize=16;" parent="afQhganDkCOF2s81uszc-1" vertex="1">
          <mxGeometry x="74" y="1247.5" width="200.33" height="20" as="geometry" />
        </mxCell>
        <mxCell id="Xf7myAMOC80gz1t5hUh6-29" value="field name" style="text;html=1;strokeColor=none;fillColor=none;align=right;verticalAlign=middle;whiteSpace=wrap;rounded=0;fontSize=16;" parent="afQhganDkCOF2s81uszc-1" vertex="1">
          <mxGeometry x="84" y="1287.5" width="190.33" height="20" as="geometry" />
        </mxCell>
        <mxCell id="Xf7myAMOC80gz1t5hUh6-30" value="field name" style="text;html=1;strokeColor=none;fillColor=none;align=right;verticalAlign=middle;whiteSpace=wrap;rounded=0;fontSize=16;" parent="afQhganDkCOF2s81uszc-1" vertex="1">
          <mxGeometry x="74" y="1327.5" width="200.33" height="20" as="geometry" />
        </mxCell>
        <mxCell id="Xf7myAMOC80gz1t5hUh6-31" value="field name" style="text;html=1;strokeColor=none;fillColor=none;align=right;verticalAlign=middle;whiteSpace=wrap;rounded=0;fontSize=16;" parent="afQhganDkCOF2s81uszc-1" vertex="1">
          <mxGeometry x="74" y="1367.5" width="200.33" height="20" as="geometry" />
        </mxCell>
        <mxCell id="Xf7myAMOC80gz1t5hUh6-32" value="Cancel" style="html=1;shadow=0;dashed=0;shape=mxgraph.bootstrap.rrect;rSize=5;fillColor=#6C757D;strokeColor=none;fontColor=#FFFFFF;fontSize=14;" parent="afQhganDkCOF2s81uszc-1" vertex="1">
          <mxGeometry x="914" y="1500" width="70" height="40" as="geometry" />
        </mxCell>
        <mxCell id="Xf7myAMOC80gz1t5hUh6-33" value="Search" style="html=1;shadow=0;dashed=0;shape=mxgraph.bootstrap.rrect;rSize=5;fillColor=#6C757D;strokeColor=none;fontColor=#FFFFFF;fontSize=14;" parent="afQhganDkCOF2s81uszc-1" vertex="1">
          <mxGeometry x="834" y="1500" width="70" height="40" as="geometry" />
        </mxCell>
        <mxCell id="Xf7myAMOC80gz1t5hUh6-34" value="" style="group" parent="afQhganDkCOF2s81uszc-1" connectable="0" vertex="1">
          <mxGeometry x="324.66" y="1280" width="650" height="35" as="geometry" />
        </mxCell>
        <mxCell id="Xf7myAMOC80gz1t5hUh6-35" value="field options" style="text;fontColor=#000000;fontSize=16;verticalAlign=middle;strokeColor=none;fillColor=none;" parent="Xf7myAMOC80gz1t5hUh6-34" vertex="1">
          <mxGeometry width="650" height="30" as="geometry" />
        </mxCell>
        <mxCell id="Xf7myAMOC80gz1t5hUh6-36" value="" style="dashed=0;shape=triangle;noLabel=1;strokeColor=none;fillColor=#666666;direction=south;" parent="Xf7myAMOC80gz1t5hUh6-35" vertex="1">
          <mxGeometry x="1" y="0.5" width="10" height="5" relative="1" as="geometry">
            <mxPoint x="-14" y="-3" as="offset" />
          </mxGeometry>
        </mxCell>
        <mxCell id="Xf7myAMOC80gz1t5hUh6-37" value="" style="dashed=0;shape=line;strokeWidth=1;noLabel=1;strokeColor=#E6E6E6;" parent="Xf7myAMOC80gz1t5hUh6-34" vertex="1">
          <mxGeometry y="25" width="650" height="10" as="geometry" />
        </mxCell>
        <mxCell id="Xf7myAMOC80gz1t5hUh6-38" value="" style="group" parent="afQhganDkCOF2s81uszc-1" connectable="0" vertex="1">
          <mxGeometry x="324.66" y="1320" width="650" height="35" as="geometry" />
        </mxCell>
        <mxCell id="Xf7myAMOC80gz1t5hUh6-39" value="field options" style="text;fontColor=#000000;fontSize=16;verticalAlign=middle;strokeColor=none;fillColor=none;" parent="Xf7myAMOC80gz1t5hUh6-38" vertex="1">
          <mxGeometry width="650" height="30" as="geometry" />
        </mxCell>
        <mxCell id="Xf7myAMOC80gz1t5hUh6-40" value="" style="dashed=0;shape=triangle;noLabel=1;strokeColor=none;fillColor=#666666;direction=south;" parent="Xf7myAMOC80gz1t5hUh6-39" vertex="1">
          <mxGeometry x="1" y="0.5" width="10" height="5" relative="1" as="geometry">
            <mxPoint x="-14" y="-3" as="offset" />
          </mxGeometry>
        </mxCell>
        <mxCell id="Xf7myAMOC80gz1t5hUh6-41" value="" style="dashed=0;shape=line;strokeWidth=1;noLabel=1;strokeColor=#E6E6E6;" parent="Xf7myAMOC80gz1t5hUh6-38" vertex="1">
          <mxGeometry y="25" width="650" height="10" as="geometry" />
        </mxCell>
        <mxCell id="Xf7myAMOC80gz1t5hUh6-42" value="" style="group" parent="afQhganDkCOF2s81uszc-1" connectable="0" vertex="1">
          <mxGeometry x="324.66" y="1360" width="650" height="35" as="geometry" />
        </mxCell>
        <mxCell id="Xf7myAMOC80gz1t5hUh6-43" value="field options" style="text;fontColor=#000000;fontSize=16;verticalAlign=middle;strokeColor=none;fillColor=none;" parent="Xf7myAMOC80gz1t5hUh6-42" vertex="1">
          <mxGeometry width="650" height="30" as="geometry" />
        </mxCell>
        <mxCell id="Xf7myAMOC80gz1t5hUh6-44" value="" style="dashed=0;shape=triangle;noLabel=1;strokeColor=none;fillColor=#666666;direction=south;" parent="Xf7myAMOC80gz1t5hUh6-43" vertex="1">
          <mxGeometry x="1" y="0.5" width="10" height="5" relative="1" as="geometry">
            <mxPoint x="-14" y="-3" as="offset" />
          </mxGeometry>
        </mxCell>
        <mxCell id="Xf7myAMOC80gz1t5hUh6-45" value="" style="dashed=0;shape=line;strokeWidth=1;noLabel=1;strokeColor=#E6E6E6;" parent="Xf7myAMOC80gz1t5hUh6-42" vertex="1">
          <mxGeometry y="25" width="650" height="10" as="geometry" />
        </mxCell>
        <mxCell id="Xf7myAMOC80gz1t5hUh6-46" value="create advanced search component.&lt;br&gt;Advanced search option in search box that directs to full page or modal." style="text;html=1;align=center;verticalAlign=middle;resizable=0;points=[];autosize=1;fontSize=17;fontColor=#000000;" parent="afQhganDkCOF2s81uszc-1" vertex="1">
          <mxGeometry x="69" y="1470" width="550" height="50" as="geometry" />
        </mxCell>
        <mxCell id="Xf7myAMOC80gz1t5hUh6-47" value="" style="group" parent="afQhganDkCOF2s81uszc-1" connectable="0" vertex="1">
          <mxGeometry x="324" y="1240" width="650" height="35" as="geometry" />
        </mxCell>
        <mxCell id="Xf7myAMOC80gz1t5hUh6-48" value="Input text" style="text;fontSize=16;verticalAlign=middle;strokeColor=none;fillColor=none;" parent="Xf7myAMOC80gz1t5hUh6-47" vertex="1">
          <mxGeometry width="650" height="29.999999999999996" as="geometry" />
        </mxCell>
        <mxCell id="Xf7myAMOC80gz1t5hUh6-49" value="" style="dashed=0;shape=line;strokeWidth=1;noLabel=1;strokeColor=#eeeeee;" parent="Xf7myAMOC80gz1t5hUh6-47" vertex="1">
          <mxGeometry y="25" width="650" height="10" as="geometry" />
        </mxCell>
      </root>
    </mxGraphModel>
  </diagram>
</mxfile>
